<svg width="218" height="150" viewBox="0 0 218 150" fill="none" xmlns="http://www.w3.org/2000/svg">
<path d="M87.8055 67.2113C99.841 60.8973 106.124 51.3431 106.124 36.4719C106.124 7.14483 86.216 0 63.2427 0H0V147.217H65.0215C89.3951 147.217 112.293 134.381 112.293 104.472C112.293 85.9873 104.307 72.3207 87.8055 67.2113ZM29.483 25.1315H57.1493C67.7844 25.1315 77.3597 28.4132 77.3597 41.9551C77.3597 54.4586 69.9038 59.4849 59.3823 59.4849H29.483V25.1315ZM61.0097 122.21H29.483V81.6671H61.6153C74.5969 81.6671 82.8097 87.6073 82.8097 102.686C82.8097 117.557 73.0073 122.21 61.0097 122.21ZM196.692 22.2238H142.306V7.72639H196.692V22.2238ZM218 95.4583C218 63.9297 201.196 37.635 170.729 37.635C141.132 37.635 121.035 62.0604 121.035 94.046C121.035 127.236 140.073 150 170.729 150C193.929 150 208.955 138.535 216.183 114.151H192.642C190.107 123.248 179.661 128.067 171.561 128.067C155.931 128.067 147.718 118.014 147.718 100.942H217.773C217.886 99.1969 218 97.3276 218 95.4583ZM147.756 82.4979C148.626 68.499 157.104 59.7341 169.896 59.7341C183.294 59.7341 190.031 68.3744 191.166 82.4979H147.756Z" fill="black"/>
</svg>
