<svg width="200" height="200" viewBox="0 0 200 200" fill="none" xmlns="http://www.w3.org/2000/svg">
<path fill-rule="evenodd" clip-rule="evenodd" d="M99.9922 0C44.778 0 0 45.9044 0 102.534C0 147.828 28.6508 186.26 68.3886 199.824C73.3918 200.763 75.2152 197.596 75.2152 194.877C75.2152 192.441 75.1282 185.996 75.076 177.442C47.2601 183.635 41.3913 163.696 41.3913 163.696C36.8423 151.85 30.2857 148.696 30.2857 148.696C21.2061 142.339 30.9731 142.465 30.9731 142.465C41.0104 143.189 46.2899 153.033 46.2899 153.033C55.21 168.699 69.6979 164.174 75.3949 161.549C76.3033 154.928 78.888 150.408 81.7426 147.846C59.538 145.253 36.1912 136.46 36.1912 97.1712C36.1912 85.9738 40.0896 76.8281 46.4864 69.659C45.4545 67.0656 42.0233 56.6421 47.4696 42.524C47.4696 42.524 55.8615 39.7674 74.9662 53.0295C82.9408 50.7572 91.4985 49.6242 100.001 49.5801C108.497 49.6158 117.049 50.7577 125.036 53.0295C144.128 39.7674 152.508 42.524 152.508 42.524C157.965 56.6421 154.534 67.0656 153.508 69.659C159.918 76.8281 163.785 85.9738 163.785 97.1712C163.785 136.561 140.402 145.228 118.129 147.764C121.714 150.93 124.913 157.187 124.913 166.755C124.913 180.457 124.791 191.516 124.791 194.877C124.791 197.621 126.596 200.813 131.667 199.812C171.374 186.223 200 147.821 200 102.534C200 45.9044 155.222 0 99.9896 0" fill="#1B1817"/>
</svg>
